<svg xmlns="http://www.w3.org/2000/svg" width="261.849" height="130.81" viewBox="0 0 261.849 130.81">
  <g id="Group_1" data-name="Group 1" transform="translate(-694.681 -246.784)">
    <path id="Path_1" data-name="Path 1" d="M564.315,407.828h-65.18V280.018h65.18" transform="translate(197.046 -31.734)" fill="none" stroke="#000" stroke-width="3"/>
    <path id="Path_2" data-name="Path 2" d="M614.2,403.095h65.18V275.284H614.2" transform="translate(275.649 -27)" fill="none" stroke="#000" stroke-width="3"/>
    <text id="LUXDEC" transform="translate(761 291)" font-size="32" font-family="PlayfairDisplay-Bold, Playfair Display" font-weight="700"><tspan x="0" y="0">LUXDEC</tspan></text>
    <path id="Path_4" data-name="Path 4" d="M904.462,312.189H883.427l-23.182,33.468H790.268l-20.177-33.468h-22l28.355,47.952h97.476Z" stroke="#000" stroke-width="1"/>
    <g id="Rectangle_1" data-name="Rectangle 1" transform="translate(791 312)" stroke="#000" stroke-width="1">
      <rect width="32" height="30" stroke="none"/>
      <rect x="0.5" y="0.5" width="31" height="29" fill="none"/>
    </g>
    <g id="Path_5" data-name="Path 5" transform="translate(828.211 312.189)">
      <path d="M 31.5 29.31057929992676 L 0.5 29.31057929992676 L 0.5 0.4999986886978149 L 31.5 0.4999986886978149 L 31.5 29.31057929992676 Z" stroke="none"/>
      <path d="M 1 0.9999980926513672 L 1 28.81057929992676 L 31 28.81057929992676 L 31 0.9999980926513672 L 1 0.9999980926513672 M 0 -1.9073486328125e-06 L 32 -1.9073486328125e-06 L 32 29.81057929992676 L 0 29.81057929992676 L 0 -1.9073486328125e-06 Z" stroke="none" fill="#000"/>
    </g>
    <path id="Path_6" data-name="Path 6" d="M791,360.141v8.683h7.571v-8.683" stroke="#000" stroke-width="1"/>
    <path id="Path_7" data-name="Path 7" d="M791,360.141v8.683h7.571v-8.683" transform="translate(61.639)" stroke="#000" stroke-width="1"/>
  </g>
</svg>
